<svg width="69" height="44" viewBox="0 0 69 44" fill="none" xmlns="http://www.w3.org/2000/svg">
<g clip-path="url(#clip0_64_158)">
<path d="M34.5497 0.037789C44.3827 0.037789 54.2106 0.037789 64.0335 0.037789C66.6609 0.037789 68.3115 1.13608 68.7961 3.20391C68.9403 3.90645 69.0063 4.62282 68.9929 5.33991C68.9929 16.4491 68.9929 27.5785 68.9929 38.7281C68.9929 42.5153 67.5543 44.0302 63.7458 44.0302C44.2414 44.0302 24.7369 44.0302 5.23246 44.0302C1.5148 44.0302 0.0231966 42.5153 0.015625 38.8341C0.015625 27.6643 0.015625 16.492 0.015625 5.31718C0.015625 1.56783 1.52995 0.0680868 5.31575 0.0605123C15.0453 -0.00765776 24.7975 0.037789 34.5497 0.037789ZM34.5497 1.41634H5.53532C2.43097 1.41634 1.4618 2.37072 1.45423 5.4308C1.45423 12.1418 1.45423 18.8553 1.45423 25.5713C1.45423 30.1614 1.45423 34.7439 1.45423 39.3341C1.45423 41.3792 2.41582 42.3638 4.48287 42.5835C4.90804 42.6252 5.33541 42.6404 5.76247 42.6289C24.9439 42.6289 44.1101 42.6289 63.2612 42.6289C63.8932 42.619 64.5235 42.5608 65.1465 42.4547C65.7481 42.4061 66.3126 42.1445 66.7386 41.7169C67.1647 41.2893 67.4243 40.7237 67.471 40.1218C67.5593 39.5352 67.6024 38.9426 67.5997 38.3494C67.5997 27.5179 67.5997 16.6864 67.5997 5.85497C67.6026 5.13429 67.5443 4.41466 67.4256 3.70382C67.3625 3.16393 67.1225 2.66011 66.7431 2.27098C66.3637 1.88185 65.8662 1.62928 65.3283 1.55268C64.6509 1.43419 63.9638 1.38092 63.2764 1.39362L34.5497 1.41634Z" fill="black"/>
<path fill-rule="evenodd" clip-rule="evenodd" d="M49.8814 32.6458V30.7219C50.1319 30.7592 50.3853 30.7744 50.6385 30.7674C51.7364 30.7674 52.3346 30.3053 52.698 29.1161C52.698 29.1161 52.9024 28.4117 52.9024 28.4041L48.7381 16.8152H51.3124L54.2426 26.2378H54.2805L57.2183 16.8152H59.7169L55.3859 28.9949C54.3941 31.7975 53.2507 32.7064 50.843 32.7064C50.519 32.7056 50.1954 32.6853 49.8738 32.6458H49.8814ZM18.8378 14.0657C19.4784 13.2929 19.7958 12.3024 19.7237 11.301C18.7377 11.3962 17.8264 11.8683 17.1796 12.619C16.8611 12.9792 16.6168 13.3989 16.4609 13.8538C16.305 14.3088 16.2405 14.7901 16.271 15.27C16.7628 15.281 17.2503 15.178 17.6956 14.969C18.1409 14.7601 18.5318 14.4509 18.8378 14.0657ZM19.7161 15.467C18.3002 15.3761 17.0963 16.2699 16.4149 16.2699C15.7335 16.2699 14.7037 15.5124 13.5831 15.5124C12.8544 15.5312 12.1433 15.7403 11.5204 16.119C10.8975 16.4977 10.3844 17.0328 10.032 17.6711C8.51772 20.2919 9.63074 24.1852 11.1072 26.3287C11.8644 27.3816 12.6972 28.5481 13.833 28.5102C14.9687 28.4723 15.3473 27.8058 16.6496 27.8058C17.9519 27.8058 18.3381 28.5102 19.4814 28.4875C20.6247 28.4647 21.4046 27.427 22.1239 26.3666C22.6331 25.6164 23.0333 24.7978 23.3126 23.9352C22.6354 23.6446 22.056 23.165 21.6439 22.5539C21.2317 21.9428 21.004 21.2259 20.9881 20.4888C20.9968 19.8293 21.1721 19.1828 21.4978 18.6093C21.8234 18.0358 22.2889 17.5542 22.8508 17.2091C22.4926 16.7007 22.0221 16.2818 21.4759 15.9849C20.9296 15.688 20.3222 15.5212 19.701 15.4973L19.7161 15.467ZM32.0503 12.5129C32.7451 12.4771 33.4398 12.5875 34.0894 12.837C34.7389 13.0865 35.329 13.4695 35.8213 13.9613C36.3137 14.4532 36.6974 15.0429 36.9478 15.6923C37.1981 16.3418 37.3095 17.0365 37.2747 17.7317C37.3031 18.4325 37.1849 19.1315 36.9277 19.7839C36.6704 20.4363 36.2799 21.0278 35.7809 21.5205C35.282 22.0133 34.6857 22.3963 34.0303 22.6451C33.3748 22.894 32.6746 23.0032 31.9745 22.9657H28.5673V28.389H26.0838V12.4826L32.0503 12.5129ZM28.5673 20.8979H31.3915C33.5343 20.8979 34.7533 19.7465 34.7533 17.7393C34.7533 15.7321 33.5343 14.5959 31.3991 14.5959H28.5522V20.8979H28.5673ZM37.9182 25.1017C37.9182 23.0793 39.4326 21.8295 42.2189 21.678L45.3838 21.4887V20.6025C45.3838 19.3148 44.5207 18.5422 43.0669 18.5422C41.6132 18.5422 40.8333 19.2012 40.6213 20.2389H38.3498C38.4785 18.1483 40.2654 16.6031 43.1199 16.6031C45.9744 16.6031 47.7235 18.118 47.7235 20.3904V28.389H45.452V26.4878H45.4066C45.0406 27.133 44.5081 27.6681 43.8648 28.0372C43.2215 28.4063 42.491 28.5958 41.7495 28.5859C39.478 28.5859 37.9031 27.1771 37.9031 25.1017H37.9182ZM45.3838 24.0564V23.1399L42.5369 23.3217C41.121 23.4202 40.3184 24.0413 40.3184 25.0335C40.3184 26.0258 41.1513 26.7075 42.4309 26.7075C42.7986 26.7299 43.1671 26.6788 43.5148 26.5572C43.8626 26.4355 44.1826 26.2457 44.4561 25.9989C44.7296 25.752 44.9512 25.4531 45.1079 25.1196C45.2646 24.786 45.3533 24.4246 45.3687 24.0564H45.3838Z" fill="#010101"/>
</g>
<defs>
<clipPath id="clip0_64_158">
<rect width="69" height="44" fill="white"/>
</clipPath>
</defs>
</svg>
