<svg width="69" height="44" viewBox="0 0 69 44" fill="none" xmlns="http://www.w3.org/2000/svg">
<g clip-path="url(#clip0_64_151)">
<path d="M34.5497 0.037789C44.3827 0.037789 54.2106 0.037789 64.0335 0.037789C66.6609 0.037789 68.3115 1.13608 68.7961 3.20391C68.9403 3.90645 69.0063 4.62282 68.9929 5.33991C68.9929 16.4491 68.9929 27.5785 68.9929 38.7281C68.9929 42.5153 67.5543 44.0302 63.7458 44.0302C44.2414 44.0302 24.7369 44.0302 5.23246 44.0302C1.5148 44.0302 0.0231966 42.5153 0.015625 38.8341C0.015625 27.6643 0.015625 16.492 0.015625 5.31718C0.015625 1.56783 1.52995 0.0680868 5.31575 0.0605123C15.0453 -0.00765776 24.7975 0.037789 34.5497 0.037789ZM34.5497 1.41634H5.53532C2.43097 1.41634 1.4618 2.37072 1.45423 5.4308C1.45423 12.1418 1.45423 18.8553 1.45423 25.5713C1.45423 30.1614 1.45423 34.7439 1.45423 39.3341C1.45423 41.3792 2.41582 42.3638 4.48287 42.5835C4.90804 42.6252 5.33541 42.6404 5.76247 42.6289C24.9439 42.6289 44.1101 42.6289 63.2612 42.6289C63.8932 42.619 64.5235 42.5608 65.1465 42.4547C65.7481 42.4061 66.3126 42.1445 66.7386 41.7169C67.1647 41.2893 67.4243 40.7237 67.471 40.1218C67.5593 39.5352 67.6024 38.9426 67.5997 38.3494C67.5997 27.5179 67.5997 16.6864 67.5997 5.85497C67.6026 5.13429 67.5443 4.41466 67.4256 3.70382C67.3625 3.16393 67.1225 2.66011 66.7431 2.27098C66.3637 1.88185 65.8662 1.62928 65.3283 1.55268C64.6509 1.43419 63.9638 1.38092 63.2764 1.39362L34.5497 1.41634Z" fill="black"/>
<path d="M25.418 20.2465C25.4181 19.6707 25.3725 19.0957 25.2817 18.5271H17.3164V21.7917H21.8972C21.8032 22.3144 21.6045 22.8126 21.313 23.2565C21.0215 23.7004 20.6434 24.0807 20.2012 24.3746V26.4954H22.9345C23.7598 25.6836 24.4069 24.7087 24.8345 23.6327C25.2621 22.5568 25.4608 21.4035 25.418 20.2465Z" fill="#517CBE"/>
<path d="M17.3167 28.5404C19.3814 28.5994 21.3909 27.8679 22.9348 26.4953L20.2015 24.3745C19.5438 24.7994 18.7976 25.0682 18.0201 25.1603C17.2426 25.2525 16.4543 25.1654 15.7156 24.906C14.9769 24.6465 14.3072 24.2214 13.758 23.6632C13.2087 23.105 12.7944 22.4285 12.5466 21.6855H9.74512V23.8746C10.4524 25.2767 11.5345 26.4552 12.8712 27.2789C14.2079 28.1026 15.7468 28.5393 17.3167 28.5404Z" fill="#32A853"/>
<path d="M12.5461 21.6858C12.1901 20.6319 12.1901 19.4902 12.5461 18.4363V16.2549H9.74463C9.14724 17.4346 8.83594 18.7386 8.83594 20.061C8.83594 21.3835 9.14724 22.6874 9.74463 23.8672L12.5461 21.6858Z" fill="#FBBC0C"/>
<path d="M17.3167 14.9369C17.9153 14.9244 18.5103 15.0304 19.0678 15.2488C19.6252 15.4672 20.134 15.7936 20.5649 16.2094L22.9803 13.7931C21.4506 12.349 19.4199 11.556 17.3167 11.5814C15.7458 11.5824 14.206 12.0199 12.8691 12.8451C11.5322 13.6702 10.4506 14.8507 9.74512 16.2548L12.5466 18.4514C12.8724 17.4389 13.5084 16.5546 14.3645 15.9238C15.2206 15.293 16.2535 14.9477 17.3167 14.9369Z" fill="#E84436"/>
<path fill-rule="evenodd" clip-rule="evenodd" d="M50.3432 32.3731V30.4492C50.5943 30.4809 50.8474 30.4936 51.1004 30.4871C51.5926 30.5264 52.0811 30.3756 52.4656 30.0657C52.85 29.7557 53.1012 29.3102 53.1674 28.8207C53.1674 28.8207 53.3718 28.1163 53.3718 28.0633L49.1923 16.5425H51.7667L54.6969 25.9576H54.7423L57.6649 16.5425H60.1711L55.8402 28.7223C54.8483 31.5248 53.705 32.4262 51.2972 32.4262C51.1004 32.4262 50.5401 32.4262 50.3356 32.3731H50.3432ZM32.4894 12.2403C33.1842 12.2044 33.8789 12.3148 34.5285 12.5643C35.178 12.8138 35.7681 13.1968 36.2604 13.6887C36.7528 14.1805 37.1365 14.7702 37.3869 15.4196C37.6372 16.0691 37.7486 16.7639 37.7138 17.4591C37.7433 18.1604 37.6259 18.8602 37.3691 19.5136C37.1124 20.1669 36.722 20.7594 36.2229 21.2529C35.7239 21.7464 35.1272 22.1302 34.4712 22.3795C33.8152 22.6288 33.1144 22.7381 32.4136 22.7006H29.0064V28.1239H26.5381V12.2175L32.4894 12.2403ZM29.0064 20.6252H31.8306C33.9734 20.6252 35.2 19.4663 35.2 17.4666C35.2 15.467 33.9734 14.3157 31.8458 14.3157H29.0064V20.6252ZM38.3574 24.8214C38.3574 22.799 39.8717 21.5568 42.658 21.4053L45.8608 21.2463V20.3222C45.8608 19.0345 44.9976 18.2695 43.5439 18.2695C42.0902 18.2695 41.2724 18.9285 41.0983 19.9586H38.8268C38.9631 17.8681 40.7424 16.3305 43.6045 16.3305C46.4665 16.3305 48.2004 17.8453 48.2004 20.1177V28.1163H45.929V26.2075H45.8608C45.4964 26.853 44.9656 27.3889 44.3237 27.7593C43.6818 28.1297 42.9523 28.321 42.2113 28.3132C39.9398 28.3132 38.3574 26.9044 38.3574 24.8214ZM45.8608 23.7761V22.8672L43.0139 23.0414C41.598 23.1399 40.7954 23.7989 40.7954 24.7608C40.7954 25.7228 41.6283 26.4272 42.9079 26.4272C43.2768 26.4518 43.6469 26.4022 43.9964 26.2815C44.3459 26.1608 44.6677 25.9714 44.9429 25.7243C45.2181 25.4773 45.4411 25.1776 45.5987 24.843C45.7563 24.5085 45.8455 24.1457 45.8608 23.7761Z" fill="#010101"/>
</g>
<defs>
<clipPath id="clip0_64_151">
<rect width="69" height="44" fill="white"/>
</clipPath>
</defs>
</svg>
