<svg width="69" height="44" viewBox="0 0 69 44" fill="none" xmlns="http://www.w3.org/2000/svg">
<g clip-path="url(#clip0_64_139)">
<path d="M34.5497 0.037789C44.3827 0.037789 54.2106 0.037789 64.0335 0.037789C66.6609 0.037789 68.3115 1.13608 68.7961 3.20391C68.9403 3.90645 69.0063 4.62282 68.9929 5.33991C68.9929 16.4491 68.9929 27.5785 68.9929 38.7281C68.9929 42.5153 67.5543 44.0302 63.7458 44.0302C44.2414 44.0302 24.7369 44.0302 5.23246 44.0302C1.5148 44.0302 0.0231966 42.5153 0.015625 38.8341C0.015625 27.6643 0.015625 16.492 0.015625 5.31718C0.015625 1.56783 1.52995 0.0680868 5.31575 0.0605123C15.0453 -0.00765776 24.7975 0.037789 34.5497 0.037789ZM34.5497 1.41634H5.53532C2.43097 1.41634 1.4618 2.37072 1.45423 5.4308C1.45423 12.1418 1.45423 18.8553 1.45423 25.5713C1.45423 30.1614 1.45423 34.7439 1.45423 39.3341C1.45423 41.3792 2.41582 42.3638 4.48287 42.5835C4.90804 42.6252 5.33541 42.6404 5.76247 42.6289C24.9439 42.6289 44.1101 42.6289 63.2612 42.6289C63.8932 42.619 64.5235 42.5608 65.1465 42.4547C65.7481 42.4061 66.3126 42.1445 66.7386 41.7169C67.1647 41.2893 67.4243 40.7237 67.471 40.1218C67.5593 39.5352 67.6024 38.9426 67.5997 38.3494C67.5997 27.5179 67.5997 16.6864 67.5997 5.85497C67.6026 5.13429 67.5443 4.41466 67.4256 3.70382C67.3625 3.16393 67.1225 2.66011 66.7431 2.27098C66.3637 1.88185 65.8662 1.62928 65.3283 1.55268C64.6509 1.43419 63.9638 1.38092 63.2764 1.39362L34.5497 1.41634Z" fill="black"/>
<path d="M25.8953 32.4793V31.0932C25.9057 30.9742 25.8899 30.8544 25.8491 30.7421C25.8083 30.6299 25.7433 30.5279 25.6589 30.4435C25.5745 30.359 25.4726 30.2941 25.3604 30.2532C25.2482 30.2123 25.1284 30.1966 25.0094 30.207C24.8606 30.2056 24.7138 30.2408 24.5818 30.3094C24.4497 30.3781 24.3366 30.4782 24.2523 30.6008C24.1739 30.4724 24.062 30.3678 23.9285 30.2984C23.7951 30.229 23.6452 30.1974 23.4951 30.207C23.368 30.2022 23.2416 30.2295 23.1278 30.2864C23.014 30.3433 22.9164 30.428 22.844 30.5327V30.2524H22.3594V32.4869H22.844V31.2447C22.8324 31.1693 22.8379 31.0924 22.8602 31.0195C22.8824 30.9466 22.9208 30.8796 22.9724 30.8236C23.0241 30.7676 23.0877 30.7239 23.1585 30.6958C23.2293 30.6678 23.3056 30.656 23.3815 30.6614C23.6996 30.6614 23.8661 30.8735 23.8661 31.2447V32.4793H24.3507V31.2447C24.3406 31.1696 24.3471 31.0932 24.3699 31.0209C24.3927 30.9487 24.4311 30.8823 24.4824 30.8266C24.5338 30.7709 24.5968 30.7272 24.6669 30.6987C24.7371 30.6701 24.8127 30.6574 24.8883 30.6614C25.2139 30.6614 25.3729 30.8735 25.3729 31.2447V32.4793H25.8953ZM33.111 30.2448H32.3539V29.5783H31.8617V30.2524H31.4226V30.6993H31.8617V31.7143C31.8617 32.2294 32.0737 32.5323 32.6189 32.5323C32.8293 32.5294 33.0354 32.472 33.2171 32.3657L33.0808 31.9491C32.9559 32.0266 32.8112 32.0661 32.6643 32.0627C32.4296 32.0627 32.3387 31.9264 32.3387 31.6916V30.6917H33.0959L33.111 30.2448ZM37.2451 30.1994C37.1278 30.1968 37.0118 30.2256 36.9093 30.2829C36.8068 30.3401 36.7215 30.4238 36.6621 30.5251V30.2448H36.1775V32.4793H36.6621V31.2219C36.6621 30.8508 36.8287 30.6387 37.124 30.6387C37.2271 30.6409 37.3292 30.6588 37.4269 30.6917L37.5707 30.2221C37.4632 30.2035 37.3542 30.1959 37.2451 30.1994ZM30.9986 30.4342C30.7293 30.2655 30.4148 30.1836 30.0976 30.1994C29.5373 30.1994 29.1662 30.4797 29.1662 30.9568C29.1662 31.434 29.4464 31.5401 29.9234 31.6082H30.1581C30.408 31.6537 30.5518 31.7219 30.5518 31.8431C30.5518 31.9642 30.3626 32.1233 30.037 32.1233C29.7663 32.1257 29.5017 32.0436 29.2798 31.8885L29.0527 32.2597C29.332 32.4479 29.6624 32.5457 29.9991 32.5399C30.6503 32.5399 31.0213 32.2369 31.0213 31.7825C31.0213 31.328 30.7184 31.1765 30.2641 31.1083H30.0294C29.825 31.1083 29.6584 31.0402 29.6584 30.8963C29.6584 30.7523 29.825 30.6387 30.0824 30.6387C30.3253 30.6525 30.5626 30.717 30.779 30.8281L30.9834 30.4342H30.9986ZM43.9536 30.1994C43.8362 30.1968 43.7203 30.2256 43.6178 30.2829C43.5153 30.3401 43.4299 30.4238 43.3706 30.5251V30.2448H42.886V32.4793H43.3706V31.2219C43.3706 30.8508 43.5371 30.6387 43.8324 30.6387C43.9355 30.6409 44.0376 30.6588 44.1353 30.6917L44.2792 30.2221C44.1717 30.2035 44.0626 30.1959 43.9536 30.1994ZM37.7297 31.3583C37.7232 31.5145 37.7493 31.6704 37.8066 31.8159C37.8638 31.9614 37.9508 32.0934 38.0621 32.2032C38.1733 32.3131 38.3063 32.3984 38.4525 32.4538C38.5987 32.5092 38.7548 32.5333 38.9109 32.5248C39.1858 32.5315 39.4542 32.4403 39.6681 32.2672L39.4712 31.8506C39.3052 31.9821 39.0999 32.0541 38.8882 32.0551C38.7951 32.0577 38.7025 32.0404 38.6165 32.0046C38.5306 31.9687 38.4532 31.9149 38.3895 31.8469C38.3258 31.7789 38.2773 31.6982 38.2471 31.6101C38.2169 31.5219 38.2057 31.4284 38.2143 31.3356C38.2049 31.2408 38.2152 31.145 38.2446 31.0544C38.274 30.9638 38.3219 30.8802 38.3852 30.809C38.4486 30.7379 38.526 30.6806 38.6125 30.6409C38.6991 30.6011 38.7929 30.5797 38.8882 30.5781C39.1007 30.5819 39.3059 30.6565 39.4712 30.7902L39.7059 30.3963C39.4921 30.2233 39.2237 30.132 38.9488 30.1388C38.7931 30.1291 38.6371 30.1523 38.4909 30.2068C38.3447 30.2613 38.2116 30.3459 38.1002 30.4552C37.9889 30.5644 37.9017 30.6959 37.8444 30.8411C37.7871 30.9862 37.7609 31.1418 37.7676 31.2977L37.7297 31.3583ZM42.2727 31.3583V30.2448H41.7805V30.5251C41.6996 30.4183 41.5938 30.3329 41.4725 30.2761C41.3511 30.2194 41.2178 30.1931 41.0839 30.1994C40.7919 30.223 40.5194 30.3557 40.3208 30.5712C40.1221 30.7866 40.0118 31.069 40.0118 31.3621C40.0118 31.6552 40.1221 31.9376 40.3208 32.153C40.5194 32.3684 40.7919 32.5012 41.0839 32.5248C41.2185 32.5376 41.3541 32.5142 41.4766 32.4569C41.5991 32.3997 41.7041 32.3106 41.7805 32.1991V32.4793H42.2727V31.3583ZM40.4858 31.3583C40.4858 31.1795 40.5568 31.008 40.6832 30.8816C40.8095 30.7552 40.9809 30.6842 41.1597 30.6842C41.3384 30.6842 41.5098 30.7552 41.6362 30.8816C41.7625 31.008 41.8335 31.1795 41.8335 31.3583C41.8335 31.5371 41.7625 31.7085 41.6362 31.835C41.5098 31.9614 41.3384 32.0324 41.1597 32.0324C40.9809 32.0324 40.8095 31.9614 40.6832 31.835C40.5568 31.7085 40.4858 31.5371 40.4858 31.3583ZM34.6557 30.1994C34.5043 30.1948 34.3537 30.222 34.2136 30.2792C34.0734 30.3364 33.9468 30.4224 33.8419 30.5316C33.737 30.6408 33.6562 30.7708 33.6047 30.9132C33.5531 31.0556 33.532 31.2072 33.5426 31.3583C33.5318 31.5117 33.5535 31.6656 33.6064 31.81C33.6592 31.9544 33.7419 32.086 33.8492 32.1961C33.9564 32.3063 34.0858 32.3925 34.2287 32.4491C34.3716 32.5058 34.5248 32.5315 34.6784 32.5248C35.0067 32.5287 35.3267 32.422 35.587 32.2218L35.3144 31.8506C35.1275 31.9957 34.8996 32.0779 34.6632 32.0854C34.5048 32.0966 34.348 32.0474 34.2244 31.9476C34.1008 31.8478 34.0195 31.7049 33.9969 31.5477H35.64V31.3583C35.6631 31.2113 35.6539 31.0611 35.613 30.918C35.5721 30.7749 35.5005 30.6425 35.4032 30.53C35.3059 30.4175 35.1852 30.3276 35.0495 30.2666C34.9139 30.2055 34.7665 30.1749 34.6178 30.1767L34.6557 30.1994ZM34.6557 30.616C34.7279 30.614 34.7998 30.6263 34.8672 30.6524C34.9346 30.6784 34.9961 30.7176 35.0483 30.7676C35.1004 30.8177 35.1421 30.8776 35.1709 30.9439C35.1997 31.0102 35.215 31.0815 35.216 31.1538H34.0196C34.0312 31.0045 34.0998 30.8653 34.2112 30.7652C34.3225 30.6651 34.4681 30.6117 34.6178 30.616H34.6557ZM46.7702 31.3734V29.3662H46.2856V30.5251C46.2047 30.4183 46.0989 30.3329 45.9776 30.2761C45.8562 30.2194 45.7229 30.1931 45.589 30.1994C45.297 30.223 45.0245 30.3557 44.8259 30.5712C44.6272 30.7866 44.5169 31.069 44.5169 31.3621C44.5169 31.6552 44.6272 31.9376 44.8259 32.153C45.0245 32.3684 45.297 32.5012 45.589 32.5248C45.7237 32.5376 45.8592 32.5142 45.9817 32.4569C46.1042 32.3997 46.2092 32.3106 46.2856 32.1991V32.4793H46.7702V31.3583V31.3734ZM44.9833 31.3734C44.9833 31.1946 45.0543 31.0232 45.1807 30.8968C45.3071 30.7703 45.4785 30.6993 45.6572 30.6993C45.8359 30.6993 46.0073 30.7703 46.1337 30.8968C46.2601 31.0232 46.3311 31.1946 46.3311 31.3734C46.3311 31.5522 46.2601 31.7237 46.1337 31.8501C46.0073 31.9765 45.8359 32.0476 45.6572 32.0476C45.4785 32.0476 45.3071 31.9765 45.1807 31.8501C45.0543 31.7237 44.9833 31.5522 44.9833 31.3734ZM28.6892 31.3734V30.2448H28.1441V30.5251C28.0631 30.4183 27.9574 30.3329 27.836 30.2761C27.7147 30.2194 27.5813 30.1931 27.4475 30.1994C27.1554 30.223 26.883 30.3557 26.6843 30.5712C26.4857 30.7866 26.3753 31.069 26.3753 31.3621C26.3753 31.6552 26.4857 31.9376 26.6843 32.153C26.883 32.3684 27.1554 32.5012 27.4475 32.5248C27.5821 32.5376 27.7177 32.5142 27.8402 32.4569C27.9627 32.3997 28.0676 32.3106 28.1441 32.1991V32.4793H28.6287V31.3583L28.6892 31.3734ZM26.8796 31.3734C26.8796 31.1946 26.9506 31.0232 27.077 30.8968C27.2034 30.7703 27.3748 30.6993 27.5535 30.6993C27.7322 30.6993 27.9036 30.7703 28.03 30.8968C28.1564 31.0232 28.2274 31.1946 28.2274 31.3734C28.2274 31.5522 28.1564 31.7237 28.03 31.8501C27.9036 31.9765 27.7322 32.0476 27.5535 32.0476C27.3748 32.0476 27.2034 31.9765 27.077 31.8501C26.9506 31.7237 26.8796 31.5522 26.8796 31.3734Z" fill="#010101"/>
<path d="M38.1462 13.3159H30.832V26.4576H38.1462V13.3159Z" fill="#EB621D"/>
<path d="M31.3007 19.8905C31.3029 18.6237 31.5923 17.3739 32.147 16.2351C32.7018 15.0963 33.5075 14.0982 34.5035 13.3159C33.273 12.3576 31.7982 11.7641 30.247 11.6031C28.6959 11.4421 27.1307 11.7199 25.7297 12.405C24.3287 13.0902 23.148 14.155 22.3222 15.4784C21.4964 16.8017 21.0586 18.3304 21.0586 19.8905C21.0586 21.4506 21.4964 22.9793 22.3222 24.3026C23.148 25.626 24.3287 26.6908 25.7297 27.3759C27.1307 28.0611 28.6959 28.3389 30.247 28.1779C31.7982 28.0169 33.273 27.4234 34.5035 26.4651C33.505 25.6851 32.6975 24.6875 32.1425 23.5482C31.5874 22.4089 31.2996 21.1579 31.3007 19.8905Z" fill="#E41522"/>
<path d="M48.0116 19.8905C48.021 21.4615 47.5861 23.0032 46.7572 24.3376C45.9283 25.672 44.7391 26.7448 43.3269 27.4321C41.9147 28.1195 40.3371 28.3934 38.7759 28.2223C37.2148 28.0512 35.7338 27.442 34.5039 26.4651C35.4983 25.6828 36.3015 24.6841 36.8525 23.5449C37.4035 22.4058 37.6878 21.156 37.684 19.8905C37.6828 18.6258 37.3963 17.3777 36.8456 16.2393C36.295 15.1009 35.4945 14.1015 34.5039 13.3158C35.7338 12.3389 37.2148 11.7297 38.7759 11.5586C40.3371 11.3875 41.9147 11.6614 43.3269 12.3488C44.7391 13.0361 45.9283 14.1089 46.7572 15.4433C47.5861 16.7777 48.021 18.3194 48.0116 19.8905Z" fill="#F59E1F"/>
</g>
<defs>
<clipPath id="clip0_64_139">
<rect width="69" height="44" fill="white"/>
</clipPath>
</defs>
</svg>
