<svg width="69" height="63" viewBox="0 0 69 63" fill="none" xmlns="http://www.w3.org/2000/svg">
<g clip-path="url(#clip0_64_146)">
<path d="M34.5497 9.47728C44.3827 9.47728 54.2106 9.47728 64.0335 9.47728C66.6609 9.47728 68.3115 10.5784 68.7961 12.6516C68.9403 13.3559 69.0064 14.0742 68.9929 14.7931C68.9929 25.931 68.9929 37.0891 68.9929 48.2675C68.9929 52.0646 67.5543 53.5834 63.7458 53.5834C44.2414 53.5834 24.7369 53.5834 5.23246 53.5834C1.5148 53.5834 0.0231966 52.0646 0.015625 48.3739C0.015625 37.1752 0.015625 25.974 0.015625 14.7703C0.015625 11.0113 1.52995 9.50766 5.31575 9.50006C15.0453 9.43172 24.7975 9.47728 34.5497 9.47728ZM34.5497 10.8594H5.53532C2.43097 10.8594 1.4618 11.8162 1.45423 14.8842C1.45423 21.6125 1.45423 28.3434 1.45423 35.0767C1.45423 39.6787 1.45423 44.2731 1.45423 48.8751C1.45423 50.9255 2.41582 51.9127 4.48287 52.1329C4.90804 52.1748 5.33541 52.19 5.76247 52.1785C24.9439 52.1785 44.1101 52.1785 63.2612 52.1785C63.8932 52.1685 64.5235 52.1101 65.1465 52.0038C65.7481 51.955 66.3126 51.6927 66.7386 51.264C67.1647 50.8353 67.4243 50.2683 67.471 49.6648C67.5593 49.0767 67.6024 48.4826 67.5997 47.8878C67.5997 37.0284 67.5997 26.1689 67.5997 15.3095C67.6026 14.5869 67.5443 13.8655 67.4256 13.1528C67.3625 12.6115 67.1225 12.1064 66.7431 11.7162C66.3637 11.3261 65.8662 11.0729 65.3283 10.9961C64.6509 10.8773 63.9638 10.8239 63.2764 10.8366L34.5497 10.8594Z" fill="black"/>
<path d="M30.991 39.8535H26.6752L29.3707 23.2378H33.6865L30.991 39.8535ZM23.0484 23.1998L18.937 34.5909L18.4449 32.1304L16.9987 24.6655C16.9168 24.1978 16.6591 23.7795 16.2787 23.4969C15.8983 23.2143 15.4243 23.0889 14.9544 23.1467H8.13993L8.05664 23.4277C9.65915 23.8229 11.1914 24.4632 12.5996 25.3262L16.3324 39.8535H20.8299L27.6898 23.1998H23.0484ZM56.9768 39.8535H60.9367L57.4841 23.1998H54.0163C53.5961 23.1662 53.1762 23.2682 52.818 23.4909C52.4597 23.7136 52.1819 24.0453 52.0249 24.4377L45.5891 39.8535H50.0866L50.9876 37.3855H56.4619L56.9768 39.8535ZM52.2294 33.9758L54.5008 27.7563L55.7804 33.9758H52.2294ZM45.9298 27.2323L46.5431 23.6631C45.2971 23.2184 43.9886 22.9749 42.6664 22.9417C40.5237 22.9417 35.4431 23.8757 35.4431 28.4397C35.4431 32.7303 41.402 32.7835 41.402 35.0389C41.402 37.2944 36.0564 36.8919 34.2847 35.4718L33.6487 39.2005C35.1887 39.85 36.8468 40.1707 38.5172 40.1421C41.4625 40.1421 45.8995 38.6233 45.8995 34.4466C45.8995 30.1332 39.8801 29.7307 39.8801 27.8474C39.8801 25.9641 44.0823 26.2147 45.9374 27.2323H45.9298Z" fill="#2767AF"/>
<path d="M18.4524 32.1683L16.9987 24.6654C16.9168 24.1977 16.6591 23.7794 16.2787 23.4968C15.8983 23.2142 15.4243 23.0888 14.9544 23.1466H8.13993L8.05664 23.4276C10.3994 24.0221 12.5852 25.1208 14.4622 26.6474C16.256 28.1011 17.6329 30.0063 18.4524 32.1683V32.1683Z" fill="#E7A640"/>
</g>
<defs>
<clipPath id="clip0_64_146">
<rect width="69" height="63" fill="white"/>
</clipPath>
</defs>
</svg>
