<svg aria-hidden="true" xmlns="http://www.w3.org/2000/svg" xmlns:xlink="http://www.w3.org/1999/xlink"><symbol viewBox="0 0 12 13" id="account" xmlns="http://www.w3.org/2000/svg">
<path d="M6 0C3.687 0 1.8 1.85841 1.8 4.13636C1.8 5.56045 2.538 6.825 3.6564 7.57132C1.5162 8.47541 0 10.5672 0 13H1.2C1.2 10.3823 3.342 8.27273 6 8.27273C8.658 8.27273 10.8 10.3823 10.8 13H12C12 10.5672 10.4838 8.476 8.3436 7.57073C8.91441 7.19123 9.38209 6.67975 9.70572 6.08104C10.0293 5.48233 10.1991 4.81463 10.2 4.13636C10.2 1.85841 8.313 0 6 0ZM6 1.18182C7.6638 1.18182 9 2.49777 9 4.13636C9 5.77495 7.6638 7.09091 6 7.09091C4.3362 7.09091 3 5.77495 3 4.13636C3 2.49777 4.3362 1.18182 6 1.18182Z"/>
</symbol><symbol viewBox="0 0 11 16" id="arrow" xmlns="http://www.w3.org/2000/svg">
<path d="M10.5 9.70839L9.71955 8.79231L6.04236 13.1104L6.04236 0.338135L4.95764 0.338135L4.95764 13.1104L1.27991 8.79295L0.5 9.70839L5.11004 15.1196L5.5 15.5569L5.88995 15.1196L10.5 9.70839Z"/>
</symbol><symbol viewBox="0 0 11 8" id="arrow-right" xmlns="http://www.w3.org/2000/svg">
<path d="M10.3536 4.35355C10.5488 4.15829 10.5488 3.84171 10.3536 3.64645L7.17157 0.464466C6.97631 0.269204 6.65973 0.269204 6.46447 0.464466C6.2692 0.659728 6.2692 0.976311 6.46447 1.17157L9.29289 4L6.46447 6.82843C6.2692 7.02369 6.2692 7.34027 6.46447 7.53553C6.65973 7.7308 6.97631 7.7308 7.17157 7.53553L10.3536 4.35355ZM0 4.5H10V3.5H0V4.5Z"/>
</symbol><symbol viewBox="0 0 14 14" id="blogger" xmlns="http://www.w3.org/2000/svg">
<path d="M4.69804 0C3.5594 0 2.46739 0.452324 1.66225 1.25747C0.857109 2.06261 0.404785 3.15461 0.404785 4.29326V9.30205C0.404785 10.4407 0.857109 11.5327 1.66225 12.3378C2.46739 13.143 3.5594 13.5953 4.69804 13.5953H9.70684C10.8455 13.5953 11.9375 13.143 12.7426 12.3378C13.5478 11.5327 14.0001 10.4407 14.0001 9.30205V5.72434C14.0001 5.53457 13.9247 5.35257 13.7905 5.21838C13.6563 5.08419 13.4743 5.0088 13.2846 5.0088H12.569C12.3792 5.0088 12.1972 4.93341 12.063 4.79922C11.9289 4.66503 11.8535 4.48303 11.8535 4.29326C11.8535 3.15461 11.4011 2.06261 10.596 1.25747C9.79086 0.452324 8.69885 0 7.56021 0H4.69804ZM4.69804 3.57771H7.56021C7.95376 3.57771 8.27575 3.89971 8.27575 4.29326C8.27575 4.6868 7.95376 5.0088 7.56021 5.0088H4.69804C4.30449 5.0088 3.9825 4.6868 3.9825 4.29326C3.9825 3.89971 4.30449 3.57771 4.69804 3.57771ZM4.69804 8.58651H9.70684C10.1004 8.58651 10.4224 8.9085 10.4224 9.30205C10.4224 9.6956 10.1004 10.0176 9.70684 10.0176H4.69804C4.30449 10.0176 3.9825 9.6956 3.9825 9.30205C3.9825 8.9085 4.30449 8.58651 4.69804 8.58651Z"/>
</symbol><symbol viewBox="0 0 12 13" id="cart" xmlns="http://www.w3.org/2000/svg">
<path d="M5.53025 0C4.15756 0 3.03082 1.12675 3.03082 2.49943V2.99932H0.562373L0.53138 3.46822L0.031493 12.4662L0 12.9971H11.06L11.029 12.4657L10.5291 3.46772L10.4976 2.99932H8.02969V2.49943C8.02969 1.12675 6.90294 0 5.53025 0ZM5.53025 0.999774C5.92798 0.999774 6.30943 1.15777 6.59067 1.43901C6.87191 1.72026 7.02991 2.1017 7.02991 2.49943V2.99932H4.03059V2.49943C4.03059 2.1017 4.18859 1.72026 4.46983 1.43901C4.75107 1.15777 5.13252 0.999774 5.53025 0.999774ZM1.49966 3.9991H3.03082V5.49876H4.03059V3.9991H7.02991V5.49876H8.02969V3.9991H9.56084L9.99824 11.9973H1.06276L1.49966 3.9991Z"/>
</symbol><symbol viewBox="0 0 11 21" id="facebook" xmlns="http://www.w3.org/2000/svg">
<path d="M8.05272 0C5.23205 0 3.57771 1.48976 3.57771 4.88429V7.87097H0V11.4487H3.57771V20.0352H7.15543V11.4487H10.0176L10.7331 7.87097H7.15543V5.48964C7.15543 4.21097 7.57259 3.57771 8.77255 3.57771H10.7331V0.146686C10.394 0.100891 9.40581 0 8.05272 0Z"/>
</symbol><symbol viewBox="0 0 17 16" id="insta" xmlns="http://www.w3.org/2000/svg">
<path d="M5.29437 0C2.75348 0 0.665527 2.08509 0.665527 4.62884V11.1131C0.665527 13.654 2.75062 15.7419 5.29437 15.7419H11.7786C14.3195 15.7419 16.4075 13.6568 16.4075 11.1131V4.62956C16.4075 2.08795 14.3224 0 11.7786 0H5.29437ZM5.29437 1.43109H11.7786C12.1987 1.43052 12.6148 1.51285 13.003 1.67335C13.3912 1.83385 13.744 2.06938 14.041 2.36643C14.3381 2.66348 14.5736 3.01622 14.7341 3.40445C14.8946 3.79267 14.9769 4.20875 14.9764 4.62884V11.1131C14.9769 11.5332 14.8946 11.9493 14.7341 12.3375C14.5736 12.7257 14.3381 13.0785 14.041 13.3755C13.744 13.6726 13.3912 13.9081 13.003 14.0686C12.6148 14.2291 12.1987 14.3114 11.7786 14.3109H5.29509C4.87493 14.3115 4.45878 14.2293 4.07047 14.0688C3.68216 13.9083 3.32933 13.6728 3.03221 13.3758C2.73508 13.0787 2.49949 12.7259 2.33894 12.3377C2.1784 11.9494 2.09605 11.5332 2.09661 11.1131V4.62956C2.09595 4.20941 2.17821 3.79325 2.33867 3.40494C2.49913 3.01663 2.73464 2.66381 3.0317 2.36668C3.32876 2.06955 3.68154 1.83396 4.06981 1.67342C4.45808 1.51287 4.87422 1.43052 5.29437 1.43109ZM12.7625 2.99669C12.6772 2.99631 12.5928 3.01282 12.514 3.04527C12.4351 3.07771 12.3635 3.12545 12.3032 3.18572C12.243 3.246 12.1952 3.31762 12.1628 3.39644C12.1303 3.47526 12.1138 3.55973 12.1142 3.64497C12.1142 4.00561 12.4019 4.29326 12.7625 4.29326C12.8478 4.29373 12.9323 4.27729 13.0112 4.24489C13.0902 4.21248 13.1619 4.16476 13.2222 4.10448C13.2826 4.04419 13.3304 3.97255 13.3628 3.89367C13.3953 3.8148 13.4119 3.73027 13.4115 3.64497C13.4119 3.55967 13.3953 3.47514 13.3628 3.39627C13.3304 3.3174 13.2826 3.24575 13.2222 3.18547C13.1619 3.12519 13.0902 3.07746 13.0112 3.04506C12.9323 3.01266 12.8478 2.99622 12.7625 2.99669ZM8.5365 3.57771C6.17521 3.57771 4.24324 5.50968 4.24324 7.87097C4.24324 10.2323 6.17521 12.1642 8.5365 12.1642C10.8978 12.1642 12.8298 10.2323 12.8298 7.87097C12.8298 5.50968 10.8978 3.57771 8.5365 3.57771ZM8.5365 5.0088C10.1271 5.0088 11.3987 6.28032 11.3987 7.87097C11.3987 9.46162 10.1271 10.7331 8.5365 10.7331C6.94584 10.7331 5.67432 9.46162 5.67432 7.87097C5.67432 6.28032 6.94584 5.0088 8.5365 5.0088Z"/>
</symbol><symbol viewBox="0 0 17 15" id="liked" xmlns="http://www.w3.org/2000/svg">
<path d="M1.91266 7.64435C0.290154 5.5258 0.830989 2.34797 3.53517 1.2887C6.23934 0.229422 7.86185 2.34797 8.40268 3.40725C8.94352 2.34797 11.1069 0.229422 13.811 1.2887C16.5152 2.34797 16.5152 5.5258 14.8927 7.64435C13.2702 9.7629 8.40268 14 8.40268 14C8.40268 14 3.53517 9.7629 1.91266 7.64435Z" stroke-linecap="round" stroke-linejoin="round"/>
</symbol><symbol viewBox="0 0 16 16" id="linkedin" xmlns="http://www.w3.org/2000/svg">
<path d="M2.23151 5.42026e-07C1.98329 -0.000187454 1.73745 0.0485298 1.50806 0.14337C1.27867 0.238209 1.07021 0.377313 0.894585 0.552736C0.718964 0.728158 0.579623 0.936461 0.484523 1.16575C0.389422 1.39503 0.340426 1.64081 0.340332 1.88903C0.340332 2.93372 1.18682 3.79953 2.22936 3.79953C3.27334 3.79953 4.12054 2.93373 4.12054 1.89046C4.12073 1.64227 4.07201 1.39648 3.97716 1.16712C3.88231 0.93777 3.7432 0.729356 3.56776 0.553791C3.39233 0.378227 3.18402 0.238953 2.95474 0.143931C2.72546 0.048909 2.4797 4.70804e-07 2.23151 5.42026e-07ZM11.4563 5.0088C9.8685 5.0088 8.96047 5.83883 8.52399 6.66456H8.4782V5.23133H5.34913V15.7419H8.60986V10.5392C8.60986 9.16825 8.7129 7.84306 10.4094 7.84306C12.0817 7.84306 12.106 9.40652 12.106 10.6258V15.7419H15.3667V9.96894C15.3667 7.14398 14.7592 5.0088 11.4563 5.0088ZM0.600074 5.23062V15.7419H3.86295V5.23062H0.600074Z"/>
</symbol><symbol viewBox="0 0 20 29" id="location" xmlns="http://www.w3.org/2000/svg">
<path d="M10.2539 0.89209C5.0431 0.89209 0.80368 5.13151 0.80368 10.3423C0.80368 16.8918 10.2632 28.0796 10.2632 28.0796C10.2632 28.0796 19.7042 16.5697 19.7042 10.3423C19.7042 5.13151 15.4649 0.89209 10.2539 0.89209ZM13.1053 13.1094C12.319 13.8954 11.2866 14.2885 10.2539 14.2885C9.22145 14.2885 8.18864 13.8954 7.40276 13.1094C5.83048 11.5373 5.83048 8.97914 7.40276 7.40687C8.16408 6.64521 9.17681 6.22571 10.2539 6.22571C11.331 6.22571 12.3436 6.64537 13.1053 7.40687C14.6775 8.97914 14.6775 11.5373 13.1053 13.1094Z"/>
</symbol><symbol viewBox="0 0 30 30" id="phone" xmlns="http://www.w3.org/2000/svg">
<path d="M10.0758 12.3489C11.1039 11.3208 11.1039 9.64807 10.0758 8.61999L6.46018 5.00434C5.90711 4.45122 5.14042 4.17096 4.35743 4.23542C3.58938 4.29864 2.89469 4.69016 2.45155 5.3095C2.35956 5.43805 2.27073 5.56848 2.18372 5.69997L9.4542 12.9705L10.0758 12.3489Z"/>
<path d="M24.9955 23.5395L21.3798 19.9239C20.3519 18.8959 18.679 18.8958 17.6509 19.9239L17.0293 20.5455L24.3001 27.8163C24.4316 27.7292 24.5618 27.6401 24.6903 27.5481C25.3096 27.105 25.7011 26.4103 25.7644 25.6423C25.8289 24.8591 25.5486 24.0927 24.9955 23.5395Z"/>
<path d="M14.5435 21.939C13.8392 21.939 13.1771 21.6648 12.6791 21.1668L8.83299 17.3207C8.335 16.8227 8.06066 16.1605 8.06066 15.4562C8.06066 15.0561 8.14943 14.6698 8.31713 14.3193L1.28576 7.28784C0.296696 9.36458 -0.140999 11.6913 0.0395866 14.0267C0.282926 17.1738 1.64007 20.1301 3.86113 22.3511L7.64875 26.1386C9.86969 28.3596 12.826 29.7168 15.9731 29.9602C16.317 29.9868 16.6606 30 17.0034 30C18.9882 30 20.941 29.5575 22.7119 28.7141L15.6804 21.6826C15.33 21.8503 14.9436 21.939 14.5435 21.939Z"/>
<path d="M17.6952 0C17.2098 0 16.8163 0.393516 16.8163 0.878906C16.8163 1.3643 17.2098 1.75781 17.6952 1.75781C23.5107 1.75781 28.2421 6.48914 28.2421 12.3047C28.2421 12.7901 28.6356 13.1836 29.121 13.1836C29.6064 13.1836 29.9999 12.7901 29.9999 12.3047C29.9999 5.51988 24.48 0 17.6952 0Z"/>
<path d="M17.6951 12.3039C17.6951 12.3039 17.6952 12.3042 17.6952 12.3047C17.6952 12.7901 18.0887 13.1836 18.5741 13.1836C19.0595 13.1836 19.453 12.7901 19.453 12.3047C19.453 11.3354 18.6644 10.5469 17.6952 10.5469C17.2098 10.5469 16.8163 10.94 16.8163 11.4254C16.8163 11.9108 17.2097 12.3039 17.6951 12.3039Z"/>
<path d="M17.6952 8.78906C19.6337 8.78906 21.2108 10.3662 21.2108 12.3047C21.2108 12.7901 21.6043 13.1836 22.0897 13.1836C22.5751 13.1836 22.9686 12.7901 22.9686 12.3047C22.9686 9.39691 20.603 7.03125 17.6952 7.03125C17.2098 7.03125 16.8163 7.42477 16.8163 7.91016C16.8163 8.39555 17.2098 8.78906 17.6952 8.78906Z"/>
<path d="M17.6952 3.51562C17.2098 3.51562 16.8163 3.90914 16.8163 4.39453C16.8163 4.87992 17.2098 5.27344 17.6952 5.27344C21.5722 5.27344 24.7264 8.42766 24.7264 12.3047C24.7264 12.7901 25.12 13.1836 25.6053 13.1836C26.0907 13.1836 26.4843 12.7901 26.4843 12.3047C26.4843 7.4584 22.5415 3.51562 17.6952 3.51562Z"/>
</symbol><symbol viewBox="0 0 18 18" id="search" xmlns="http://www.w3.org/2000/svg">
<path d="M11.0013 0C7.14359 0 4.00257 3.1409 4.00257 6.99844C4.00257 7.70794 4.1079 8.39236 4.30425 9.03726C4.75324 10.512 4.74693 12.2467 3.65673 13.3366L0.503656 16.4887C0.22548 16.7668 0.225373 17.2177 0.503418 17.496C0.781572 17.7743 1.23272 17.7744 1.51096 17.4961L4.66205 14.3448C5.75266 13.254 7.48948 13.2473 8.96512 13.6963C9.62042 13.8956 10.3063 13.9984 11.0013 13.9969C14.859 13.9969 18 10.856 18 6.99844C18 3.1409 14.859 0 11.0013 0ZM11.0013 1.39969C14.1017 1.39969 16.6003 3.89813 16.6003 6.99844C16.6003 10.0988 14.1017 12.5972 11.0013 12.5972C7.90085 12.5972 5.40231 10.0988 5.40231 6.99844C5.40231 3.89813 7.90085 1.39969 11.0013 1.39969Z"/>
</symbol><symbol viewBox="0 0 18 14" id="twitter" xmlns="http://www.w3.org/2000/svg">
<path d="M17.4721 1.65597C16.8291 1.94063 16.1469 2.12708 15.4485 2.20909C16.1838 1.7688 16.7341 1.07638 16.997 0.260666C16.3055 0.670483 15.5493 0.959862 14.7609 1.11645C14.2779 0.600084 13.6507 0.240986 12.9609 0.0858518C12.271 -0.0692824 11.5505 -0.0132744 10.8929 0.246593C10.2353 0.50646 9.67113 0.958163 9.2737 1.54297C8.87628 2.12777 8.66401 2.81862 8.66448 3.52569C8.66448 3.8026 8.69525 4.07093 8.7575 4.32781C7.35612 4.25883 5.985 3.89534 4.73349 3.26102C3.48199 2.6267 2.37819 1.73579 1.49403 0.646343C1.17989 1.18408 1.01512 1.79597 1.01676 2.41874C1.01676 3.64017 1.63714 4.71921 2.58452 5.35103C2.02493 5.33328 1.47776 5.18164 0.988855 4.90883V4.95391C0.988371 5.76761 1.26966 6.55637 1.7849 7.18614C2.30015 7.81592 3.01758 8.24786 3.81525 8.40855C3.29653 8.5508 2.75204 8.57186 2.22388 8.47009C2.44885 9.1701 2.88686 9.78237 3.47671 10.2214C4.06657 10.6604 4.77881 10.9041 5.51395 10.9187C4.78312 11.4923 3.94635 11.9162 3.05151 12.166C2.15668 12.4159 1.22135 12.4868 0.299072 12.3748C1.90942 13.4111 3.7843 13.9614 5.69927 13.9597C12.1807 13.9597 15.7255 8.5903 15.7255 3.93355C15.7255 3.78328 15.7197 3.62872 15.714 3.47774C16.4028 2.97905 16.9979 2.36255 17.4721 1.65669V1.65597Z"/>
</symbol></svg>