<svg width="66" height="66" viewBox="0 0 66 66" fill="none" xmlns="http://www.w3.org/2000/svg">
<path d="M33 0C14.8027 0 0 14.8041 0 33C0 51.1959 14.8027 66 33 66C51.1973 66 66 51.1959 66 33C66 14.8041 51.1973 0 33 0ZM33 63.25C16.32 63.25 2.74996 49.68 2.74996 33C2.74996 16.32 16.32 2.74996 33 2.74996C49.68 2.74996 63.25 16.32 63.25 33C63.25 49.68 49.68 63.25 33 63.25Z" fill="#FF4E4E"/>
<path d="M26.125 13.75H17.875C15.6003 13.75 13.75 15.6003 13.75 17.875V26.125C13.75 28.3997 15.6003 30.25 17.875 30.25H26.125C28.3997 30.25 30.25 28.3997 30.25 26.125V17.875C30.25 15.6003 28.3997 13.75 26.125 13.75ZM27.4999 26.125C27.4999 26.8836 26.8822 27.5 26.1249 27.5H17.8749C17.1175 27.5 16.4998 26.8837 16.4998 26.125V17.875C16.4998 17.1164 17.1175 16.5 17.8749 16.5H26.1249C26.8822 16.5 27.4999 17.1163 27.4999 17.875V26.125Z" fill="#FF4E4E"/>
<path d="M48.125 13.75H39.875C37.6003 13.75 35.75 15.6003 35.75 17.875V26.125C35.75 28.3997 37.6003 30.25 39.875 30.25H48.125C50.3997 30.25 52.25 28.3997 52.25 26.125V17.875C52.25 15.6003 50.3997 13.75 48.125 13.75ZM49.5 26.125C49.5 26.8836 48.8823 27.5 48.125 27.5H39.875C39.1177 27.5 38.5 26.8837 38.5 26.125V17.875C38.5 17.1164 39.1177 16.5 39.875 16.5H48.125C48.8823 16.5 49.5 17.1163 49.5 17.875V26.125Z" fill="#FF4E4E"/>
<path d="M26.125 35.75H17.875C15.6003 35.75 13.75 37.6003 13.75 39.875V48.125C13.75 50.3997 15.6003 52.25 17.875 52.25H26.125C28.3997 52.25 30.25 50.3997 30.25 48.125V39.875C30.25 37.6004 28.3997 35.75 26.125 35.75ZM27.4999 48.125C27.4999 48.8836 26.8822 49.5 26.1249 49.5H17.8749C17.1175 49.5 16.4998 48.8837 16.4998 48.125V39.875C16.4998 39.1164 17.1175 38.5 17.8749 38.5H26.1249C26.8822 38.5 27.4999 39.1163 27.4999 39.875V48.125Z" fill="#FF4E4E"/>
<path d="M48.125 35.75H39.875C37.6003 35.75 35.75 37.6003 35.75 39.875V48.125C35.75 50.3997 37.6003 52.25 39.875 52.25H48.125C50.3997 52.25 52.25 50.3997 52.25 48.125V39.875C52.25 37.6004 50.3997 35.75 48.125 35.75ZM49.5 48.125C49.5 48.8836 48.8823 49.5 48.125 49.5H39.875C39.1177 49.5 38.5 48.8837 38.5 48.125V39.875C38.5 39.1164 39.1177 38.5 39.875 38.5H48.125C48.8823 38.5 49.5 39.1163 49.5 39.875V48.125Z" fill="#FF4E4E"/>
</svg>
