<svg width="76" height="76" viewBox="0 0 76 76" fill="none" xmlns="http://www.w3.org/2000/svg">
<path d="M61.3465 59.2253C60.7607 58.6395 59.811 58.6395 59.2252 59.2253C58.6394 59.811 58.6394 60.7608 59.2252 61.3466L61.3465 59.2253ZM72.9391 75.0607C73.5248 75.6464 74.4746 75.6465 75.0604 75.0607C75.6462 74.4749 75.6462 73.5251 75.0604 72.9393L72.9391 75.0607ZM26.9813 13.9783C27.7996 13.8487 28.3578 13.0803 28.2282 12.2621C28.0986 11.4439 27.3302 10.8856 26.512 11.0152L26.9813 13.9783ZM11.0151 26.5121C10.8855 27.3304 11.4438 28.0987 12.262 28.2283C13.0802 28.3579 13.8486 27.7997 13.9782 26.9814L11.0151 26.5121ZM59.2252 61.3466L72.9391 75.0607L75.0604 72.9393L61.3465 59.2253L59.2252 61.3466ZM32.8571 62.2142C16.6436 62.2142 3.5 49.0706 3.5 32.8571H0.5C0.5 50.7274 14.9868 65.2142 32.8571 65.2142V62.2142ZM62.2142 32.8571C62.2142 49.0706 49.0706 62.2142 32.8571 62.2142V65.2142C50.7274 65.2142 65.2142 50.7274 65.2142 32.8571H62.2142ZM32.8571 3.5C49.0706 3.5 62.2142 16.6436 62.2142 32.8571H65.2142C65.2142 14.9868 50.7274 0.5 32.8571 0.5V3.5ZM32.8571 0.5C14.9868 0.5 0.5 14.9868 0.5 32.8571H3.5C3.5 16.6436 16.6436 3.5 32.8571 3.5V0.5ZM26.512 11.0152C18.5349 12.2787 12.2786 18.535 11.0151 26.5121L13.9782 26.9814C15.0383 20.288 20.2879 15.0384 26.9813 13.9783L26.512 11.0152Z" fill="#ED553B"/>
</svg>
