<svg width="70" height="68" viewBox="0 0 70 68" fill="none" xmlns="http://www.w3.org/2000/svg">
<path d="M5.95349 45.3209L7.38008 44.8573L5.95349 45.3209ZM2.45993 25.9165L3.90254 26.3274L2.45993 25.9165ZM17.0483 11.1746L16.1666 9.96112L17.0483 11.1746ZM2.81632 24.8196L4.22495 25.3352L2.81632 24.8196ZM15.4658 63.7507L14.6292 64.9957L15.4658 63.7507ZM14.5327 63.0728L13.6072 64.2532L14.5327 63.0728ZM64.0465 45.3209L62.6199 44.8573L64.0465 45.3209ZM55.4673 63.0728L56.3928 64.2532L55.4673 63.0728ZM54.5342 63.7507L55.3708 64.9957L54.5342 63.7507ZM52.9517 11.1746L53.8334 9.96112L52.9517 11.1746ZM67.1837 24.8196L65.7751 25.3352L67.1837 24.8196ZM67.5401 25.9165L66.0975 26.3274L67.5401 25.9165ZM35.5767 1.85579L35.5217 3.35478L35.5767 1.85579ZM34.4233 1.85579L34.4783 3.35478L34.4233 1.85579ZM33.5 57.9046C33.5 58.733 34.1716 59.4046 35 59.4046C35.8284 59.4046 36.5 58.733 36.5 57.9046H33.5ZM36.5 51.6127C36.5 50.7843 35.8284 50.1127 35 50.1127C34.1716 50.1127 33.5 50.7843 33.5 51.6127H36.5ZM47.5837 66.0421L47.7641 67.5312L47.5837 66.0421ZM7.38008 44.8573C5.76773 39.895 4.59722 36.286 3.98069 33.3417C3.37138 30.4319 3.33691 28.3132 3.90254 26.3274L1.01731 25.5056C0.269686 28.1303 0.379731 30.7825 1.04438 33.9566C1.70181 37.0962 2.93471 40.8841 4.52691 45.7844L7.38008 44.8573ZM16.1666 9.96112C11.9982 12.9897 8.77425 15.3295 6.39695 17.483C3.99357 19.6603 2.34561 21.7413 1.40768 24.3041L4.22495 25.3352C4.93456 23.3961 6.20777 21.7024 8.41108 19.7064C10.6405 17.6868 13.7088 15.455 17.9299 12.3882L16.1666 9.96112ZM3.90254 26.3274C3.99785 25.9928 4.10539 25.6619 4.22495 25.3352L1.40768 24.3041C1.26291 24.6997 1.1327 25.1005 1.01731 25.5056L3.90254 26.3274ZM4.52691 45.7844C6.11911 50.6847 7.34814 54.4738 8.66169 57.4003C9.98966 60.3588 11.4596 62.5692 13.6072 64.2532L15.4583 61.8924C13.8335 60.6183 12.616 58.884 11.3986 56.1718C10.1668 53.4274 8.99242 49.8196 7.38008 44.8573L4.52691 45.7844ZM16.3024 62.5056C16.0136 62.3116 15.7321 62.1071 15.4583 61.8924L13.6072 64.2532C13.9386 64.5131 14.2796 64.7608 14.6292 64.9957L16.3024 62.5056ZM62.6199 44.8573C61.0076 49.8196 59.8332 53.4274 58.6014 56.1718C57.384 58.884 56.1665 60.6183 54.5417 61.8924L56.3928 64.2532C58.5404 62.5692 60.0103 60.3588 61.3383 57.4003C62.6519 54.4738 63.8809 50.6847 65.4731 45.7844L62.6199 44.8573ZM54.5417 61.8924C54.2679 62.1071 53.9864 62.3116 53.6976 62.5056L55.3708 64.9957C55.7205 64.7608 56.0614 64.5131 56.3928 64.2532L54.5417 61.8924ZM52.0701 12.3882C56.2912 15.455 59.3595 17.6868 61.5889 19.7064C63.7922 21.7024 65.0654 23.3961 65.7751 25.3352L68.5923 24.3041C67.6544 21.7413 66.0064 19.6602 63.603 17.483C61.2257 15.3295 58.0018 12.9897 53.8334 9.96112L52.0701 12.3882ZM65.4731 45.7844C67.0653 40.8841 68.2982 37.0962 68.9556 33.9566C69.6203 30.7825 69.7303 28.1303 68.9827 25.5056L66.0975 26.3274C66.6631 28.3132 66.6286 30.4319 66.0193 33.3417C65.4028 36.286 64.2323 39.895 62.6199 44.8573L65.4731 45.7844ZM65.7751 25.3352C65.8946 25.6618 66.0022 25.9928 66.0975 26.3274L68.9827 25.5056C68.8673 25.1005 68.7371 24.6997 68.5923 24.3041L65.7751 25.3352ZM53.8334 9.96112C49.665 6.93258 46.4435 4.5895 43.6607 2.99404C40.8473 1.38108 38.3589 0.456846 35.6316 0.356797L35.5217 3.35478C37.5851 3.43048 39.5894 4.11796 42.1685 5.59664C44.7782 7.09283 47.8489 9.32131 52.0701 12.3882L53.8334 9.96112ZM17.9299 12.3882C22.1511 9.32131 25.2218 7.09283 27.8315 5.59664C30.4106 4.11796 32.4149 3.43048 34.4783 3.35478L34.3684 0.356797C31.6411 0.456846 29.1527 1.38108 26.3393 2.99404C23.5565 4.5895 20.335 6.93258 16.1666 9.96112L17.9299 12.3882ZM35.6316 0.356797C35.2107 0.341354 34.7893 0.341354 34.3684 0.356797L34.4783 3.35478C34.826 3.34203 35.174 3.34203 35.5217 3.35478L35.6316 0.356797ZM46.0837 51.6127V64.1964H49.0837V51.6127H46.0837ZM23.9163 64.1964V51.6127H20.9163V64.1964H23.9163ZM35 40.529C41.1214 40.529 46.0837 45.4914 46.0837 51.6127H49.0837C49.0837 43.8345 42.7782 37.529 35 37.529V40.529ZM35 37.529C27.2218 37.529 20.9163 43.8345 20.9163 51.6127H23.9163C23.9163 45.4914 28.8786 40.529 35 40.529V37.529ZM36.5 57.9046V51.6127H33.5V57.9046H36.5ZM35 67.9244C40.3854 67.9244 44.497 67.927 47.7641 67.5312L47.4033 64.553C44.3583 64.9218 40.46 64.9244 35 64.9244V67.9244ZM47.7641 67.5312C50.7839 67.1654 53.2099 66.4477 55.3708 64.9957L53.6976 62.5056C52.0619 63.6048 50.1423 64.2212 47.4033 64.553L47.7641 67.5312ZM46.0837 64.1964V66.0421H49.0837V64.1964H46.0837ZM35 64.9244C29.54 64.9244 25.6417 64.9218 22.5967 64.553L22.2359 67.5312C25.503 67.927 29.6146 67.9244 35 67.9244V64.9244ZM22.5967 64.553C19.8577 64.2212 17.9381 63.6048 16.3024 62.5056L14.6292 64.9957C16.7901 66.4477 19.2161 67.1654 22.2359 67.5312L22.5967 64.553ZM20.9163 64.1964V66.0421H23.9163V64.1964H20.9163Z" fill="#ED553B"/>
</svg>
