<svg width="17" height="16" viewBox="0 0 17 16" fill="none" xmlns="http://www.w3.org/2000/svg">
<path d="M8.66642 12.6667C8.79828 12.6667 8.92717 12.6276 9.0368 12.5544C9.14644 12.4811 9.23188 12.377 9.28234 12.2552C9.3328 12.1334 9.346 11.9993 9.32028 11.87C9.29456 11.7407 9.23106 11.6219 9.13783 11.5287C9.04459 11.4354 8.9258 11.3719 8.79648 11.3462C8.66716 11.3205 8.53312 11.3337 8.4113 11.3842C8.28948 11.4346 8.18536 11.5201 8.11211 11.6297C8.03886 11.7393 7.99976 11.8682 7.99976 12.0001C7.99976 12.1769 8.06999 12.3465 8.19502 12.4715C8.32004 12.5965 8.48961 12.6667 8.66642 12.6667ZM11.9998 12.6667C12.1316 12.6667 12.2605 12.6276 12.3701 12.5544C12.4798 12.4811 12.5652 12.377 12.6157 12.2552C12.6661 12.1334 12.6793 11.9993 12.6536 11.87C12.6279 11.7407 12.5644 11.6219 12.4712 11.5287C12.3779 11.4354 12.2591 11.3719 12.1298 11.3462C12.0005 11.3205 11.8665 11.3337 11.7446 11.3842C11.6228 11.4346 11.5187 11.5201 11.4454 11.6297C11.3722 11.7393 11.3331 11.8682 11.3331 12.0001C11.3331 12.1769 11.4033 12.3465 11.5284 12.4715C11.6534 12.5965 11.8229 12.6667 11.9998 12.6667ZM11.9998 10.0001C12.1316 10.0001 12.2605 9.96098 12.3701 9.88773C12.4798 9.81447 12.5652 9.71035 12.6157 9.58854C12.6661 9.46672 12.6793 9.33267 12.6536 9.20335C12.6279 9.07403 12.5644 8.95524 12.4712 8.86201C12.3779 8.76877 12.2591 8.70528 12.1298 8.67956C12.0005 8.65383 11.8665 8.66704 11.7446 8.71749C11.6228 8.76795 11.5187 8.8534 11.4454 8.96303C11.3722 9.07267 11.3331 9.20156 11.3331 9.33341C11.3331 9.51023 11.4033 9.67979 11.5284 9.80482C11.6534 9.92984 11.8229 10.0001 11.9998 10.0001ZM8.66642 10.0001C8.79828 10.0001 8.92717 9.96098 9.0368 9.88773C9.14644 9.81447 9.23188 9.71035 9.28234 9.58854C9.3328 9.46672 9.346 9.33267 9.32028 9.20335C9.29456 9.07403 9.23106 8.95524 9.13783 8.86201C9.04459 8.76877 8.9258 8.70528 8.79648 8.67956C8.66716 8.65383 8.53312 8.66704 8.4113 8.71749C8.28948 8.76795 8.18536 8.8534 8.11211 8.96303C8.03886 9.07267 7.99976 9.20156 7.99976 9.33341C7.99976 9.51023 8.06999 9.67979 8.19502 9.80482C8.32004 9.92984 8.48961 10.0001 8.66642 10.0001ZM13.3331 2.00008H12.6664V1.33341C12.6664 1.1566 12.5962 0.987034 12.4712 0.86201C12.3461 0.736986 12.1766 0.666748 11.9998 0.666748C11.8229 0.666748 11.6534 0.736986 11.5284 0.86201C11.4033 0.987034 11.3331 1.1566 11.3331 1.33341V2.00008H5.99976V1.33341C5.99976 1.1566 5.92952 0.987034 5.80449 0.86201C5.67947 0.736986 5.5099 0.666748 5.33309 0.666748C5.15628 0.666748 4.98671 0.736986 4.86168 0.86201C4.73666 0.987034 4.66642 1.1566 4.66642 1.33341V2.00008H3.99976C3.46932 2.00008 2.96062 2.2108 2.58554 2.58587C2.21047 2.96094 1.99976 3.46965 1.99976 4.00008V13.3334C1.99976 13.8638 2.21047 14.3726 2.58554 14.7476C2.96062 15.1227 3.46932 15.3334 3.99976 15.3334H13.3331C13.8635 15.3334 14.3722 15.1227 14.7473 14.7476C15.1224 14.3726 15.3331 13.8638 15.3331 13.3334V4.00008C15.3331 3.46965 15.1224 2.96094 14.7473 2.58587C14.3722 2.2108 13.8635 2.00008 13.3331 2.00008ZM13.9998 13.3334C13.9998 13.5102 13.9295 13.6798 13.8045 13.8048C13.6795 13.9298 13.5099 14.0001 13.3331 14.0001H3.99976C3.82294 14.0001 3.65338 13.9298 3.52835 13.8048C3.40333 13.6798 3.33309 13.5102 3.33309 13.3334V7.33341H13.9998V13.3334ZM13.9998 6.00008H3.33309V4.00008C3.33309 3.82327 3.40333 3.6537 3.52835 3.52868C3.65338 3.40365 3.82294 3.33341 3.99976 3.33341H4.66642V4.00008C4.66642 4.17689 4.73666 4.34646 4.86168 4.47149C4.98671 4.59651 5.15628 4.66675 5.33309 4.66675C5.5099 4.66675 5.67947 4.59651 5.80449 4.47149C5.92952 4.34646 5.99976 4.17689 5.99976 4.00008V3.33341H11.3331V4.00008C11.3331 4.17689 11.4033 4.34646 11.5284 4.47149C11.6534 4.59651 11.8229 4.66675 11.9998 4.66675C12.1766 4.66675 12.3461 4.59651 12.4712 4.47149C12.5962 4.34646 12.6664 4.17689 12.6664 4.00008V3.33341H13.3331C13.5099 3.33341 13.6795 3.40365 13.8045 3.52868C13.9295 3.6537 13.9998 3.82327 13.9998 4.00008V6.00008ZM5.33309 10.0001C5.46494 10.0001 5.59384 9.96098 5.70347 9.88773C5.8131 9.81447 5.89855 9.71035 5.94901 9.58854C5.99947 9.46672 6.01267 9.33267 5.98695 9.20335C5.96122 9.07403 5.89773 8.95524 5.80449 8.86201C5.71126 8.76877 5.59247 8.70528 5.46315 8.67956C5.33383 8.65383 5.19978 8.66704 5.07797 8.71749C4.95615 8.76795 4.85203 8.8534 4.77878 8.96303C4.70552 9.07267 4.66642 9.20156 4.66642 9.33341C4.66642 9.51023 4.73666 9.67979 4.86168 9.80482C4.98671 9.92984 5.15628 10.0001 5.33309 10.0001ZM5.33309 12.6667C5.46494 12.6667 5.59384 12.6276 5.70347 12.5544C5.8131 12.4811 5.89855 12.377 5.94901 12.2552C5.99947 12.1334 6.01267 11.9993 5.98695 11.87C5.96122 11.7407 5.89773 11.6219 5.80449 11.5287C5.71126 11.4354 5.59247 11.3719 5.46315 11.3462C5.33383 11.3205 5.19978 11.3337 5.07797 11.3842C4.95615 11.4346 4.85203 11.5201 4.77878 11.6297C4.70552 11.7393 4.66642 11.8682 4.66642 12.0001C4.66642 12.1769 4.73666 12.3465 4.86168 12.4715C4.98671 12.5965 5.15628 12.6667 5.33309 12.6667Z" fill="#FFA454"/>
</svg>
